<svg xmlns="http://www.w3.org/2000/svg" viewBox="0 0 302.3 117.29"><defs><style>.cls-1{fill:#5c4089;}.cls-2{fill:#efefef;}</style></defs><title>Asset 4</title><g id="Layer_2" data-name="Layer 2"><g id="Layer_1-2" data-name="Layer 1"><rect class="cls-1" x="99.3" y="40.12" width="199" height="75"/><path class="cls-2" d="M147.79,76.19a1.17,1.17,0,0,1-.74,1.37,7.31,7.31,0,0,1-1.84.44q-1,.11-3.33.19t-4.95.14l-5.31.11q-2.64.06-4.45.05h-1.48a9.65,9.65,0,0,1-1.15-.05,1.39,1.39,0,0,1-1.18-.6,2.42,2.42,0,0,1-.25-1.1,1.33,1.33,0,0,1,.49-1.07,1.62,1.62,0,0,1,1.21-.36l1,0q.63,0,1.57,0-.11-1.87-.16-4t-.08-4q0-1.9,0-3.38t.08-2.09a1.92,1.92,0,0,1,.49-1.1,1.69,1.69,0,0,1,1.32-.33,2,2,0,0,1,1,.3,1,1,0,0,1,.52.91q-.06,3.3-.05,6.54t.11,7.2q1.65-.05,3.49-.05t3.77-.06q.16-2.58.22-6.16t0-7.37a1.43,1.43,0,0,1,.55-1.26,2,2,0,0,1,1.15-.38,1.54,1.54,0,0,1,1.29.47,1.89,1.89,0,0,1,.36,1.18q0,3.46-.08,6.71t-.3,6.71l2.06-.11q1-.05,1.84-.16a8.66,8.66,0,0,1,2,0Q147.68,75,147.79,76.19Zm-1.7-19.79q-.11,1-.82,1.26a9.34,9.34,0,0,1-1.7.33q-1,.11-3.05.16t-4.34.06l-4.73,0-4.21,0h-1.4a10.23,10.23,0,0,1-1.13-.05,1.7,1.7,0,0,1-1.21-.63,1.4,1.4,0,0,1-.27-1.13,1.71,1.71,0,0,1,.47-1,1.54,1.54,0,0,1,1.18-.44h2.69l3.63,0q2,0,4.1,0t4.18-.05q2.06-.05,3.88-.22a5,5,0,0,1,2,.16Q146.2,55.19,146.09,56.4ZM131.9,102.47a3.72,3.72,0,0,1-1.18.33q-.58.05-1-.71a1.34,1.34,0,0,1-.14-1.24,2.75,2.75,0,0,1,.8-1q2.25-1.65,4.26-3.33A33.15,33.15,0,0,0,138.25,93a19.21,19.21,0,0,0,2.69-3.93,16.15,16.15,0,0,0,1.51-4.51,2.08,2.08,0,0,1,.63-1.43,2,2,0,0,1,1.18-.33,2.56,2.56,0,0,1,1.29.33q.58.33.52,1.48a13.35,13.35,0,0,1-1,4.45q1.59,1.48,3.35,3.05t3.41,3q1.65,1.43,3.11,2.64l2.39,2a2.66,2.66,0,0,1,.82,1.18,1.24,1.24,0,0,1-.27,1.35,1.12,1.12,0,0,1-1.13.36,5.62,5.62,0,0,1-1.51-.58,21.8,21.8,0,0,1-2-1.46l-3.16-2.56q-1.76-1.43-3.6-3t-3.16-2.69A24.88,24.88,0,0,1,141,95.49a29,29,0,0,1-2.86,2.75,37.39,37.39,0,0,1-3.11,2.34Q133.44,101.65,131.9,102.47ZM153.67,54.2a1.32,1.32,0,0,1,.44-1,2.12,2.12,0,0,1,2.39-.27,1.19,1.19,0,0,1,.63,1.15q.05,3.08.08,6.71t0,7.53q0,3.9-.05,7.92t-.08,7.86a1.29,1.29,0,0,1-.44,1.29,2,2,0,0,1-2.47,0,1.35,1.35,0,0,1-.44-1.32q-.06-3,0-6.9t0-7.92V61.24Q153.73,57.33,153.67,54.2Z"/><path class="cls-2" d="M162.47,57.93a2.73,2.73,0,0,1,.38-1.45,1.77,1.77,0,0,1,1.43-.74l3.41.11q1.76.06,3.52.05t3.44-.05q1.68-.05,3.11-.22a2.58,2.58,0,0,1,1.76.47,1.82,1.82,0,0,1,.82,1.73,4.55,4.55,0,0,1,.08,1.29q0,1.4.05,3.73t.05,5.35q0,3,0,6.12v11q0,.6,0,1.13a3.2,3.2,0,0,1-.19,1,1.46,1.46,0,0,1-.58.71,2.34,2.34,0,0,1-1.13.33q-.39-.05-2-.05t-3.52.05l-3.82.08-2.86,0h-2.14a2.24,2.24,0,0,1-1.21-.38q-.61-.38-.66-2-.06-.71-.08-2.58t0-4.36q0-2.5,0-5.43t0-5.82q0-2.88,0-5.52Zm3.79,27.44q2.64.06,5.39,0t5.5,0q.05-1.48.05-3.71V59.7q0-.93-1-.82-2.36.11-5.06.08t-5.17-.08q0,.61,0,2.42t-.08,4.23q-.06,2.42-.11,5.2t-.08,5.42q0,2.64-.05,4.84t0,3.46a2.19,2.19,0,0,0,.08.58Q165.77,85.32,166.26,85.37Zm24.41,14.4v-9.7q0-5,0-9.84T190.59,71q0-4.4-.08-7.86t-.08-5.77q0-2.31-.08-3a1.7,1.7,0,0,1,.44-1.37,1.76,1.76,0,0,1,1.1-.55,1.74,1.74,0,0,1,1.51.38,1.77,1.77,0,0,1,.47,1.26v1.48q0,.82.05,1.87.11,3,.11,6.08t.05,7q3.46.11,7.81,0a1.63,1.63,0,0,1,1.32.52,1.6,1.6,0,0,1,.41,1.13,1.86,1.86,0,0,1-.47,1.13,1.56,1.56,0,0,1-1.26.52l-4.07.08q-2,0-3.79,0,0,2.69,0,5.69t0,6.08q0,3.08.05,6.08t.14,5.69q0,.6,0,1.59a5.11,5.11,0,0,1-.14,1.54,1.42,1.42,0,0,1-.63,1,2.4,2.4,0,0,1-1,.19,1.46,1.46,0,0,1-1.43-.63A2.87,2.87,0,0,1,190.68,99.78Z"/><path class="cls-2" d="M213.16,57.44a8.82,8.82,0,0,1,8.52,4.7,15,15,0,0,1,1.59,4.73,30.62,30.62,0,0,1,.44,5.09,39.84,39.84,0,0,1-.41,5.75,16.36,16.36,0,0,1-1.54,5.06,9.39,9.39,0,0,1-3.16,3.6,9.25,9.25,0,0,1-5.28,1.37A8.58,8.58,0,0,1,208,86.2a9.88,9.88,0,0,1-3.05-3.88,17.5,17.5,0,0,1-1.37-5.11,44.59,44.59,0,0,1-.33-5.25,29.9,29.9,0,0,1,.44-5.09,14.76,14.76,0,0,1,1.57-4.62,9.65,9.65,0,0,1,3.05-3.38A9.09,9.09,0,0,1,213.16,57.44Zm-.05,3.13a5.37,5.37,0,0,0-3.35,1.34,7.94,7.94,0,0,0-2,2.88,13.75,13.75,0,0,0-.91,3.59,30.69,30.69,0,0,0-.22,3.54q0,1.92.17,4.14a16.07,16.07,0,0,0,.82,4.11,7.86,7.86,0,0,0,2,3.15,6,6,0,0,0,7.53-.14,8.9,8.9,0,0,0,2.06-3.4,16.7,16.7,0,0,0,.85-4.17q.16-2.17.16-3.7a24.69,24.69,0,0,0-.41-4.66,12.39,12.39,0,0,0-1.26-3.68,6.17,6.17,0,0,0-2.23-2.36A5.27,5.27,0,0,0,213.11,60.58Zm19.24,37q0-4.12,0-8.47t.05-8.58q0-4.23,0-8.19V64.95q0-3.44-.06-6.13t-.16-4.4a1.67,1.67,0,0,1,.41-1.35,2,2,0,0,1,1.13-.58,1.61,1.61,0,0,1,1.26.38,1.52,1.52,0,0,1,.66,1.26q0,.66,0,2t0,2.42q.05,3.79,0,8.41t-.08,9.68q0,5.06,0,10.34t.11,10.45q0,.6.08,1.57a5.65,5.65,0,0,1,0,1.51,1.62,1.62,0,0,1-.74,1,2.37,2.37,0,0,1-1,.22,1.49,1.49,0,0,1-1.21-.63,2.15,2.15,0,0,1-.49-1.35Z"/><path class="cls-2" d="M278.15,77.68a1.39,1.39,0,0,1,1.59,1.54,2,2,0,0,1-.3,1.21,1.67,1.67,0,0,1-.91.55,2.5,2.5,0,0,1-.77.14l-1,0q-.61,0-1.21-.05-3.57.06-7,.05H261.6q.05,2.64,0,5.28,4.51,0,9.13-.16a2.83,2.83,0,0,1,1.73.49,1.78,1.78,0,0,1,.8,1.7v4.23q0,1.76,0,3.66t-.08,3.27a2.25,2.25,0,0,1-.63,1.62,2.39,2.39,0,0,1-1.51.58q-3.46.16-5.72.22t-4.29.06l-4.37,0q-2.34,0-6,0a5,5,0,0,1-3.05-.74,3.19,3.19,0,0,1-1-2.67q0-2.8,0-5.5t0-5.17a1.28,1.28,0,0,1,.66-1.26,3.27,3.27,0,0,1,1.48-.33l4.62,0,4.73,0q0-1.48,0-2.75t0-2.58h-7.2q-3.57,0-7.09.11-.77,0-1.4,0l-1.29,0a1.38,1.38,0,0,1-1-.47,1.81,1.81,0,0,1-.44-1.29,1.43,1.43,0,0,1,.44-1,1.94,1.94,0,0,1,1-.55,6.89,6.89,0,0,1,1.51-.05q.8.06,1.51.05,3.57-.05,7.37-.05h16.38q2,0,3.71,0l3.44,0h1a8,8,0,0,0,1-.05A9.39,9.39,0,0,0,278.15,77.68ZM249,56.62a1.51,1.51,0,0,1-1.15-.55,1.43,1.43,0,0,1-.33-1,2.17,2.17,0,0,1,.41-1.1,1.49,1.49,0,0,1,1.29-.49h2.64l5.31,0,5.39,0q2.56,0,4.51,0a24.76,24.76,0,0,0,2.72-.14q1.65-.11,2.14.47a3.44,3.44,0,0,1,.55,2.06q.05,2.75,0,4.21t0,2.06a4.8,4.8,0,0,1-.3,1.92q-.3.66-2,.77l-1.65,0-2.89.06q-1.68,0-3.66,0h-4l-3.82,0-3.13,0q0,1,0,1.9t0,1.84a2.12,2.12,0,0,0,.11.77q.11.28.71.33,1.54.06,3.79.08l4.62,0q2.36,0,4.48,0t3.38-.08l2.5-.19q1-.08,1.4-.08A1.57,1.57,0,0,1,273.83,71a1.79,1.79,0,0,1-.3,1.1,1.16,1.16,0,0,1-.88.55,12.12,12.12,0,0,1-1.35.08l-2.61.08-5.44.08-5.09,0h-4.37q-2,0-3.19-.05a4.48,4.48,0,0,1-1.59-.33,2.24,2.24,0,0,1-.93-.74,2.64,2.64,0,0,1-.44-1,6.55,6.55,0,0,1-.11-1.24V63.93a3,3,0,0,1,.41-2,2.33,2.33,0,0,1,1.62-.41H263.5q1.9,0,3.38,0t2.14-.08v-4a2,2,0,0,0-.14-.77q-.14-.33-.74-.27-.77.06-2.17.08l-3.13.06-3.57.05-3.44,0h-5.75A10.24,10.24,0,0,1,249,56.62Zm2.42,42.12q4.78.11,9.15.11t9.26-.22v-8q0-.66-.19-.82a1,1,0,0,0-.63-.16l-4,0q-2.5,0-5.22,0h-9.37q0,1.15,0,2t0,1.73v3.93a2.3,2.3,0,0,0,.16,1Q250.66,98.73,251.37,98.73Z"/><path class="cls-1" d="M300.16,117.29H98.75a2.15,2.15,0,1,1,0-4.29H298V40.82L251.26,4.29H50.65a2.15,2.15,0,0,1,0-4.29H252a2.15,2.15,0,0,1,1.32.46l48.16,37.63a2.15,2.15,0,0,1,.83,1.69v75.37A2.15,2.15,0,0,1,300.16,117.29Z"/><path class="cls-1" d="M31.62,102.5a2.15,2.15,0,0,1-2.15-2.15V86.71A4.73,4.73,0,0,1,34.19,82H47a2.15,2.15,0,0,0,2.15-2.15V74.67A2.15,2.15,0,0,0,47,72.52H27.75a2.15,2.15,0,0,1,0-4.29H47a6.45,6.45,0,0,1,6.44,6.44v5.17A6.45,6.45,0,0,1,47,86.28H34.19a.44.44,0,0,0-.43.43v13.64A2.15,2.15,0,0,1,31.62,102.5Z"/><path class="cls-1" d="M66.49,95.1H60.93a6.45,6.45,0,0,1-6.44-6.44V66.5a6.45,6.45,0,0,1,6.44-6.44h5.56a6.45,6.45,0,0,1,6.44,6.44V88.65A6.45,6.45,0,0,1,66.49,95.1ZM60.93,64.35a2.15,2.15,0,0,0-2.15,2.15V88.65a2.15,2.15,0,0,0,2.15,2.15h5.56a2.15,2.15,0,0,0,2.15-2.15V66.5a2.15,2.15,0,0,0-2.15-2.15Z"/><path class="cls-1" d="M52.34,95.1H46.78a6.45,6.45,0,0,1-6.44-6.44V84.14a2.15,2.15,0,0,1,4.29,0v4.52a2.15,2.15,0,0,0,2.15,2.15h5.56a2.15,2.15,0,0,0,2.15-2.15V66.5a2.15,2.15,0,0,0-2.15-2.15H31.62a2.15,2.15,0,0,1,0-4.29H52.34a6.45,6.45,0,0,1,6.44,6.44V88.65A6.45,6.45,0,0,1,52.34,95.1Z"/><path class="cls-1" d="M80.65,95.1H75.08a6.45,6.45,0,0,1-6.44-6.44V66.5a6.45,6.45,0,0,1,6.44-6.44h5.56a6.45,6.45,0,0,1,6.44,6.44V88.65A6.45,6.45,0,0,1,80.65,95.1ZM75.08,64.35a2.15,2.15,0,0,0-2.15,2.15V88.65a2.15,2.15,0,0,0,2.15,2.15h5.56a2.15,2.15,0,0,0,2.15-2.15V66.5a2.15,2.15,0,0,0-2.15-2.15Z"/><path class="cls-1" d="M29.51,100.44a4.27,4.27,0,0,1,.65-2.64A2.49,2.49,0,0,1,32.24,97h4.92a4.57,4.57,0,0,1,3.67,1.46,5.45,5.45,0,0,1,1.26,3.68,5.1,5.1,0,0,1-.75,2.87,3.38,3.38,0,0,1-2.07,1.46v.05a2.91,2.91,0,0,1,1.79.71,3,3,0,0,1,.78,2l.15,1.51q.1.81.14,1.41t0,1.13a2.18,2.18,0,0,1-.61,1.6,1.89,1.89,0,0,1-1.38.62,2.38,2.38,0,0,1-1.68-.61,2.82,2.82,0,0,1-.77-1.89l-.21-2.4a2.11,2.11,0,0,0-.6-1.46,2,2,0,0,0-1.35-.43H33.84v3.76a3.82,3.82,0,0,1-.56,2.24,2,2,0,0,1-3.21,0,3.82,3.82,0,0,1-.56-2.24Zm6.55,4.46a1.94,1.94,0,0,0,1.39-.42,2.35,2.35,0,0,0,0-2.7,1.94,1.94,0,0,0-1.39-.42H33.84v3.53Z"/><path class="cls-1" d="M42.07,102a8.68,8.68,0,0,1,1.65-3,6.87,6.87,0,0,1,2.38-1.8,6.74,6.74,0,0,1,5.56,0A7,7,0,0,1,54,99a8.63,8.63,0,0,1,1.64,3,13,13,0,0,1,.6,4.1,13.41,13.41,0,0,1-.6,4.19,8.44,8.44,0,0,1-1.63,3A6.73,6.73,0,0,1,51.68,115a7.11,7.11,0,0,1-5.63,0,6.73,6.73,0,0,1-2.36-1.75,8.44,8.44,0,0,1-1.63-3,13.41,13.41,0,0,1-.6-4.19A13,13,0,0,1,42.07,102Zm8.91.47a2.33,2.33,0,0,0-4.21,0,9.57,9.57,0,0,0,0,7.26,2.33,2.33,0,0,0,4.21,0,9.57,9.57,0,0,0,0-7.26Z"/><path class="cls-1" d="M56.82,102a8.68,8.68,0,0,1,1.65-3,6.87,6.87,0,0,1,2.38-1.8,6.74,6.74,0,0,1,5.56,0A7,7,0,0,1,68.78,99a8.63,8.63,0,0,1,1.64,3,13,13,0,0,1,.6,4.1,13.41,13.41,0,0,1-.6,4.19,8.44,8.44,0,0,1-1.63,3A6.73,6.73,0,0,1,66.43,115a7.11,7.11,0,0,1-5.63,0,6.73,6.73,0,0,1-2.36-1.75,8.44,8.44,0,0,1-1.63-3,13.41,13.41,0,0,1-.6-4.19A13,13,0,0,1,56.82,102Zm8.91.47a2.33,2.33,0,0,0-4.21,0,9.57,9.57,0,0,0,0,7.26,2.33,2.33,0,0,0,4.21,0,9.57,9.57,0,0,0,0-7.26Z"/><path class="cls-1" d="M84.94,102.5a2.15,2.15,0,0,1-2.15-2.15V88.65a2.15,2.15,0,1,1,4.29,0v11.7A2.15,2.15,0,0,1,84.94,102.5Z"/><path class="cls-1" d="M98.46,117.29H84.94a2.15,2.15,0,1,1,0-4.29H96.31V40.82l-46-36-46,36V113h9.14V48.37A10.75,10.75,0,0,1,24.17,37.63H51.05a6.45,6.45,0,0,1,6.44,6.44v5.19a6.45,6.45,0,0,1-6.44,6.44H34.84a1.09,1.09,0,0,0-1.07,1.07v13.6a2.15,2.15,0,1,1-4.29,0V56.78a5.37,5.37,0,0,1,5.37-5.37H51.05a2.15,2.15,0,0,0,2.15-2.15V44.07a2.15,2.15,0,0,0-2.15-2.15H24.17a6.45,6.45,0,0,0-6.44,6.44v66.78a2.15,2.15,0,0,1-2.15,2.15H2.15A2.15,2.15,0,0,1,0,115.15V39.78a2.15,2.15,0,0,1,.83-1.69L49,.46a2.15,2.15,0,0,1,2.64,0L99.78,38.09a2.15,2.15,0,0,1,.83,1.69v75.37A2.15,2.15,0,0,1,98.46,117.29Z"/><path class="cls-1" d="M73,115.58a2.31,2.31,0,0,1-2.15-2.44V99a2.16,2.16,0,1,1,4.29,0v14.13A2.31,2.31,0,0,1,73,115.58Z"/><path class="cls-1" d="M84.94,117.27a2.44,2.44,0,0,1-2.15-2.66V99.22a2.2,2.2,0,1,1,4.29,0v15.39A2.44,2.44,0,0,1,84.94,117.27Z"/><path class="cls-1" d="M79,115.05A1.61,1.61,0,0,1,77.48,114L72,99.12A1.61,1.61,0,1,1,75,98l5.51,14.88A1.61,1.61,0,0,1,79,115.05Z"/><path class="cls-1" d="M79,115.05a1.61,1.61,0,0,1-1.51-2.17L83,98a1.61,1.61,0,1,1,3,1.12L80.5,114A1.61,1.61,0,0,1,79,115.05Z"/><path class="cls-1" d="M300.14,42H98.75a2.15,2.15,0,0,1,0-4.29h201.4a2.15,2.15,0,0,1,0,4.29Z"/></g></g></svg>