<svg xmlns="http://www.w3.org/2000/svg" viewBox="0 0 29.83 29.83"><defs><style>.cls-1{fill:#f9e419;}.cls-2{fill:#fff;}.cls-3{fill:#422901;}</style></defs><title>Asset 5</title><g id="Layer_2" data-name="Layer 2"><g id="Layer_1-2" data-name="Layer 1"><circle class="cls-1" cx="14.91" cy="14.91" r="14.91"/><path class="cls-2" d="M13.33,22.15s1.11.12,1.68.12c5.33,0,9.65-3.41,9.65-7.61S20.34,7,15,7s-9.65,3.41-9.65,7.61a7.32,7.32,0,0,0,4.19,6.28A7.15,7.15,0,0,1,7.3,24.5s-.19.33.38.21A22.43,22.43,0,0,0,13.33,22.15Z"/><path class="cls-3" d="M10.81,12.6H7.93a.49.49,0,1,0,0,1h.94V17a.48.48,0,0,0,.48.48h.1A.48.48,0,0,0,9.93,17V13.58h.88a.49.49,0,1,0,0-1Z"/><path class="cls-3" d="M17.74,16.59H16.4V13.06a.53.53,0,1,0-1.06,0v3.8a.54.54,0,0,0,0,.09.44.44,0,0,0,0,.08.44.44,0,0,0,.45.45h2a.44.44,0,1,0,0-.89Z"/><path class="cls-3" d="M22,16.75l-1.49-2,1.35-1.35a.47.47,0,1,0-.66-.66l-1.67,1.67V13.06a.53.53,0,1,0-1.06,0V17a.53.53,0,1,0,1.06,0V15.77l.3-.3,1.41,1.85a.48.48,0,1,0,.76-.57Z"/><path class="cls-3" d="M14.94,16.88,13.5,12.95h0a.71.71,0,0,0-.67-.41.69.69,0,0,0-.7.49l0,.06-1.41,3.79a.48.48,0,1,0,.9.32l.24-.7h2l.24.7a.48.48,0,1,0,.9-.32Zm-2.8-1.27.66-1.88h0l.66,1.88Z"/><polygon class="cls-3" points="13.44 10.28 13.08 10.28 12.71 10.88 12.71 10.28 12.4 10.28 12.4 11.58 12.71 11.58 12.71 10.96 13.08 11.56 13.44 11.56 13.04 10.92 13.44 10.28"/><polygon class="cls-3" points="15.74 10.28 15.39 10.28 15.01 10.88 15.01 10.28 14.71 10.28 14.71 11.58 15.01 11.58 15.01 10.96 15.39 11.56 15.74 11.56 15.35 10.92 15.74 10.28"/><path class="cls-3" d="M14.22,11.56h.3l-.16-1a.35.35,0,0,0-.69,0l-.16,1h.3l0-.26h.34Zm-.34-.49.06-.46a.1.1,0,0,1,.16,0l.06.46Z"/><path class="cls-3" d="M16.53,11.56h.3l-.16-1a.35.35,0,0,0-.69,0l-.16,1h.3l0-.26h.34Zm-.34-.49.06-.46a.1.1,0,0,1,.16,0l.06.46Z"/><path class="cls-3" d="M17.94,10.66a.47.47,0,0,0-.5-.38.43.43,0,0,0-.48.38v.54h0a.43.43,0,0,0,.48.38.47.47,0,0,0,.5-.38h0Zm-.5.64a.17.17,0,0,1-.17-.14v-.45a.17.17,0,0,1,.17-.14.23.23,0,0,1,.2.14v.45A.23.23,0,0,1,17.43,11.3Z"/></g></g></svg>