<svg xmlns="http://www.w3.org/2000/svg" viewBox="0 0 78.45 78.45"><defs><style>.cls-1{fill:none;}.cls-2{fill:#545454;}</style></defs><title>Asset 11</title><g id="Layer_2" data-name="Layer 2"><g id="Layer_1-2" data-name="Layer 1"><path class="cls-1" d="M13.41,0H65a13.4,13.4,0,0,1,13.4,13.4V65A13.41,13.41,0,0,1,65,78.45H13.41A13.41,13.41,0,0,1,0,65V13.41A13.41,13.41,0,0,1,13.41,0Z"/><polygon class="cls-2" points="66.65 17.69 66.65 17.69 66.65 17.69 66.65 17.69"/><path class="cls-2" d="M64.5,23.28a7.32,7.32,0,0,1-2.13.28l0-.23c1.11-.89,3.9-3.61,4.27-4.88.16-.55,0-.74,0-.76L63.08,19.2l-3,1.35h0A11.92,11.92,0,0,0,51.42,17c-6.21,0-11.25,4.4-11.25,9.83a14.59,14.59,0,0,0,.46,3.71c0,.28,0-.29,0,0-4-.11-9.13-1.75-13.69-4.06-9-4.56-9.57-7.72-9.57-7.72-1.41,1.5-2.14,6.47-.71,10.37.92,2.5,4.07,4.74,4.07,4.74h0a9.58,9.58,0,0,1-2.89-.47,6.39,6.39,0,0,1-2-1c-.88,2.14.88,6,3.93,8.72a16.15,16.15,0,0,0,5,2.61l-5.07.14C19.4,48.76,30,51.69,30,51.69h0a17.35,17.35,0,0,1-10.59,3.85,20.18,20.18,0,0,1-5.78-.85c5.11,4.21,11.68,7.12,18.83,6.75,19-1,29.66-17.29,30.16-33.29l0,0a13.32,13.32,0,0,0,2.79-2.34,19.63,19.63,0,0,0,3.08-4.12S65.69,22.95,64.5,23.28Z"/><path class="cls-2" d="M66.65,17.69c0,.3,0,0,0,0Z"/></g></g></svg>