<svg xmlns="http://www.w3.org/2000/svg" viewBox="0 0 65.2 62.23"><defs><style>.cls-1{fill:#bb8df7;}</style></defs><title>Asset 15</title><g id="Layer_2" data-name="Layer 2"><g id="Layer_1-2" data-name="Layer 1"><path class="cls-1" d="M45.09,62.23h-25A20.13,20.13,0,0,1,0,42.12v-22A20.13,20.13,0,0,1,20.11,0h25A20.13,20.13,0,0,1,65.2,20.11v22A20.13,20.13,0,0,1,45.09,62.23Zm-25-57.77A15.66,15.66,0,0,0,4.47,20.11v22A15.66,15.66,0,0,0,20.11,57.76h25A15.66,15.66,0,0,0,60.73,42.12v-22A15.66,15.66,0,0,0,45.09,4.47Z"/><path class="cls-1" d="M32.6,49a17.9,17.9,0,1,1,17.9-17.9A17.92,17.92,0,0,1,32.6,49Zm0-31.33A13.43,13.43,0,1,0,46,31.12,13.45,13.45,0,0,0,32.6,17.68Z"/><circle class="cls-1" cx="50.23" cy="13.77" r="3.71"/></g></g></svg>