<svg xmlns="http://www.w3.org/2000/svg" viewBox="0 0 22.51 21.55"><defs><style>.cls-1{fill:#5c4089;}</style></defs><title>Asset 5</title><g id="Layer_2" data-name="Layer 2"><g id="Layer_1-2" data-name="Layer 1"><path class="cls-1" d="M12.58.82l2.33,4.73A1.48,1.48,0,0,0,16,6.36l5.22.76a1.48,1.48,0,0,1,.82,2.52l-3.78,3.68a1.48,1.48,0,0,0-.42,1.31l.89,5.2a1.48,1.48,0,0,1-2.14,1.56l-4.67-2.45a1.48,1.48,0,0,0-1.37,0L5.9,21.38a1.48,1.48,0,0,1-2.14-1.56l.89-5.2a1.48,1.48,0,0,0-.42-1.31L.45,9.63a1.48,1.48,0,0,1,.82-2.52l5.22-.76A1.48,1.48,0,0,0,7.6,5.55L9.93.82A1.48,1.48,0,0,1,12.58.82Z"/></g></g></svg>