<svg xmlns="http://www.w3.org/2000/svg" viewBox="0 0 78.45 78.45"><defs><style>.cls-1{fill:none;}.cls-2{fill:#bb8df7;}</style></defs><title>Asset 18</title><g id="Layer_2" data-name="Layer 2"><g id="Layer_1-2" data-name="Layer 1"><rect class="cls-1" width="78.45" height="78.45" rx="13.41" ry="13.41"/><polygon class="cls-2" points="71.23 13.83 71.23 13.83 71.23 13.83 71.23 13.83"/><path class="cls-2" d="M68.69,20.42a8.64,8.64,0,0,1-2.51.33l0-.27c1.31-1,4.6-4.26,5-5.76.19-.65,0-.87,0-.89L67,15.62,63.5,17.21h0A14.05,14.05,0,0,0,53.27,13C45.94,13,40,18.18,40,24.58A17.2,17.2,0,0,0,40.55,29c0,.34,0-.34,0,0-4.72-.13-10.76-2.06-16.15-4.79-10.62-5.38-11.28-9.1-11.28-9.1-1.67,1.77-2.53,7.63-.84,12.23,1.08,2.94,4.8,5.59,4.8,5.59h0a11.29,11.29,0,0,1-3.41-.56,7.54,7.54,0,0,1-2.4-1.17c-1,2.53,1,7,4.64,10.28a19,19,0,0,0,5.92,3.07l-6,.17C15.52,50.47,28,53.92,28,53.92h0a20.46,20.46,0,0,1-12.49,4.54,23.79,23.79,0,0,1-6.82-1c6,5,13.78,8.4,22.2,8C53.28,64.24,65.9,45,66.5,26.16l0,0a15.7,15.7,0,0,0,3.29-2.76,23.15,23.15,0,0,0,3.63-4.86S70.1,20,68.69,20.42Z"/><path class="cls-2" d="M71.23,13.83c0,.36,0,0,0,0Z"/></g></g></svg>