<svg xmlns="http://www.w3.org/2000/svg" viewBox="0 0 24.28 23.33"><defs><style>.cls-1{fill:#5c4089;}.cls-2{fill:none;stroke:#5c4089;stroke-miterlimit:10;stroke-width:2px;}</style></defs><title>Asset 8</title><g id="Layer_2" data-name="Layer 2"><g id="Layer_1-2" data-name="Layer 1"><path class="cls-1" d="M12.15,19.56a1.46,1.46,0,0,0-.69.17L6.84,22.16a1.46,1.46,0,0,1-2.12-1.54l.88-5.15a1.46,1.46,0,0,0-.42-1.29L1.44,10.54A1.46,1.46,0,0,1,2.25,8L7.42,7.3a1.46,1.46,0,0,0,1.1-.8l2.31-4.68A1.44,1.44,0,0,1,12.14,1Z"/><path class="cls-2" d="M13.45,1.81,15.76,6.5a1.46,1.46,0,0,0,1.1.8L22,8a1.46,1.46,0,0,1,.81,2.49L19.1,14.18a1.46,1.46,0,0,0-.42,1.29l.88,5.15a1.46,1.46,0,0,1-2.12,1.54l-4.62-2.43a1.46,1.46,0,0,0-1.36,0L6.84,22.16a1.46,1.46,0,0,1-2.12-1.54l.88-5.15a1.46,1.46,0,0,0-.42-1.29L1.44,10.54A1.46,1.46,0,0,1,2.25,8L7.42,7.3a1.46,1.46,0,0,0,1.1-.8l2.31-4.68A1.46,1.46,0,0,1,13.45,1.81Z"/></g></g></svg>